<mxfile host="app.diagrams.net" modified="2024-05-20T10:07:15.909Z" agent="Mozilla/5.0 (Windows NT 10.0; Win64; x64) AppleWebKit/537.36 (KHTML, like Gecko) Chrome/124.0.0.0 Safari/537.36" etag="Ci6fw5ARiC2P1_3n0F9k" version="24.4.4" type="device">
  <diagram name="Page-1" id="8378b5f6-a2b2-b727-a746-972ab9d02e00">
    <mxGraphModel dx="1796" dy="735" grid="1" gridSize="10" guides="1" tooltips="1" connect="0" arrows="1" fold="1" page="1" pageScale="1.5" pageWidth="1169" pageHeight="827" background="none" math="0" shadow="0">
      <root>
        <mxCell id="0" />
        <mxCell id="1" parent="0" />
        <mxCell id="263" value="" style="shape=mxgraph.flowchart.process;fillColor=#AE4132;strokeColor=none;strokeWidth=2;opacity=50" parent="1" vertex="1">
          <mxGeometry x="546.5000000000017" y="420.0000000000018" width="79.9999999999983" height="19.99999999999983" as="geometry" />
        </mxCell>
        <mxCell id="wMrZU7lujdOBKqqqOWv5-326" value="" style="strokeColor=#DEEDFF" parent="1" vertex="1">
          <mxGeometry x="546.5" y="400" width="63.5" height="881" as="geometry" />
        </mxCell>
        <mxCell id="wMrZU7lujdOBKqqqOWv5-327" value="" style="strokeColor=#DEEDFF;fillColor=#D4E1FF" parent="1" vertex="1">
          <mxGeometry x="610" y="400" width="63.5" height="879" as="geometry" />
        </mxCell>
        <mxCell id="wMrZU7lujdOBKqqqOWv5-467" value="1" style="" parent="1" vertex="1">
          <mxGeometry x="106.5" y="420" width="40" height="20" as="geometry" />
        </mxCell>
        <mxCell id="wMrZU7lujdOBKqqqOWv5-468" value="Voorbereiding en kennis maken" style="align=left;" parent="1" vertex="1">
          <mxGeometry x="146.5" y="420" width="320" height="20" as="geometry" />
        </mxCell>
        <mxCell id="wMrZU7lujdOBKqqqOWv5-469" value="4 day" style="strokeColor=#666666;fillColor=#f5f5f5;fontColor=#333333;" parent="1" vertex="1">
          <mxGeometry x="466.50000000000176" y="420" width="80.00000000000028" height="20" as="geometry" />
        </mxCell>
        <mxCell id="wMrZU7lujdOBKqqqOWv5-470" value="2" style="" parent="1" vertex="1">
          <mxGeometry x="106.50000000000026" y="439.9999999999999" width="40" height="20" as="geometry" />
        </mxCell>
        <mxCell id="wMrZU7lujdOBKqqqOWv5-471" value="Documentatie en UML van het systeem inlezen" style="align=left;" parent="1" vertex="1">
          <mxGeometry x="146.50000000000026" y="439.9999999999999" width="319.9999999999998" height="20" as="geometry" />
        </mxCell>
        <mxCell id="wMrZU7lujdOBKqqqOWv5-472" value="1 day" style="fillColor=#f5f5f5;strokeColor=#666666;fontColor=#333333;" parent="1" vertex="1">
          <mxGeometry x="466.500000000002" y="439.99999999999983" width="80.00000000000028" height="20" as="geometry" />
        </mxCell>
        <mxCell id="wMrZU7lujdOBKqqqOWv5-473" value="3" style="strokeColor=#d6b656;fillColor=#fff2cc;" parent="1" vertex="1">
          <mxGeometry x="106.50000000000027" y="459.9999999999998" width="40" height="20" as="geometry" />
        </mxCell>
        <mxCell id="wMrZU7lujdOBKqqqOWv5-474" value="BackendChange the email address when requesting a return" style="align=left;strokeColor=#d6b656;fillColor=#fff2cc;" parent="1" vertex="1">
          <mxGeometry x="146.50000000000028" y="459.9999999999998" width="319.9999999999997" height="20.000000000000014" as="geometry" />
        </mxCell>
        <mxCell id="wMrZU7lujdOBKqqqOWv5-475" value="15 day" style="strokeColor=#666666;fillColor=#f5f5f5;fontColor=#333333;" parent="1" vertex="1">
          <mxGeometry x="466.500000000002" y="459.9999999999997" width="80.00000000000028" height="20" as="geometry" />
        </mxCell>
        <mxCell id="wMrZU7lujdOBKqqqOWv5-476" value="4" style="strokeColor=#DEEDFF" parent="1" vertex="1">
          <mxGeometry x="106.5" y="480.00000000000017" width="40" height="20" as="geometry" />
        </mxCell>
        <mxCell id="wMrZU7lujdOBKqqqOWv5-477" value="Implement in KrampReturnslipParser" style="align=left;strokeColor=#DEEDFF" parent="1" vertex="1">
          <mxGeometry x="146.5" y="480.00000000000017" width="320" height="20" as="geometry" />
        </mxCell>
        <mxCell id="wMrZU7lujdOBKqqqOWv5-478" value="2 day" style="strokeColor=#666666;fillColor=#f5f5f5;fontColor=#333333;" parent="1" vertex="1">
          <mxGeometry x="466.5000000000017" y="480.0000000000001" width="80.00000000000028" height="20" as="geometry" />
        </mxCell>
        <mxCell id="wMrZU7lujdOBKqqqOWv5-479" value="5" style="strokeColor=#DEEDFF" parent="1" vertex="1">
          <mxGeometry x="106.49999999999991" y="500.00000000000017" width="40" height="20" as="geometry" />
        </mxCell>
        <mxCell id="wMrZU7lujdOBKqqqOWv5-480" value="Implement in RMAToCustomerEmailParser" style="align=left;strokeColor=#DEEDFF" parent="1" vertex="1">
          <mxGeometry x="146.49999999999991" y="500.00000000000017" width="320.0000000000001" height="20" as="geometry" />
        </mxCell>
        <mxCell id="wMrZU7lujdOBKqqqOWv5-481" value="1 day" style="strokeColor=#666666;fillColor=#f5f5f5;fontColor=#333333;" parent="1" vertex="1">
          <mxGeometry x="466.50000000000165" y="500.0000000000001" width="80.00000000000028" height="20" as="geometry" />
        </mxCell>
        <mxCell id="wMrZU7lujdOBKqqqOWv5-482" value="6" style="strokeColor=#DEEDFF" parent="1" vertex="1">
          <mxGeometry x="106.4999999999999" y="520.0000000000005" width="40" height="20" as="geometry" />
        </mxCell>
        <mxCell id="wMrZU7lujdOBKqqqOWv5-483" value="Release RMAToCustomerEmailParser and learn Jenkins " style="align=left;strokeColor=#DEEDFF" parent="1" vertex="1">
          <mxGeometry x="146.4999999999999" y="520.0000000000005" width="320.0000000000001" height="20" as="geometry" />
        </mxCell>
        <mxCell id="wMrZU7lujdOBKqqqOWv5-484" value="1 day" style="strokeColor=#666666;fillColor=#f5f5f5;fontColor=#333333;" parent="1" vertex="1">
          <mxGeometry x="466.50000000000165" y="520.0000000000003" width="80.00000000000028" height="20" as="geometry" />
        </mxCell>
        <mxCell id="wMrZU7lujdOBKqqqOWv5-485" value="7" style="strokeColor=#DEEDFF" parent="1" vertex="1">
          <mxGeometry x="106.50000000000063" y="540.0000000000007" width="40" height="20" as="geometry" />
        </mxCell>
        <mxCell id="wMrZU7lujdOBKqqqOWv5-486" value="Formulating and Approving Research Questions" style="align=left;strokeColor=#DEEDFF" parent="1" vertex="1">
          <mxGeometry x="146.50000000000063" y="540.0000000000007" width="319.9999999999994" height="20" as="geometry" />
        </mxCell>
        <mxCell id="wMrZU7lujdOBKqqqOWv5-487" value="4 day" style="strokeColor=#666666;fillColor=#f5f5f5;fontColor=#333333;" parent="1" vertex="1">
          <mxGeometry x="466.5000000000024" y="540.0000000000007" width="80.00000000000028" height="20" as="geometry" />
        </mxCell>
        <mxCell id="wMrZU7lujdOBKqqqOWv5-488" value="8" style="strokeColor=#DEEDFF" parent="1" vertex="1">
          <mxGeometry x="106.50000000000064" y="560.0000000000006" width="40" height="20" as="geometry" />
        </mxCell>
        <mxCell id="wMrZU7lujdOBKqqqOWv5-489" value="Create a survey for customer expert CustomerProductExpert" style="align=left;strokeColor=#DEEDFF" parent="1" vertex="1">
          <mxGeometry x="146.50000000000063" y="560.0000000000006" width="319.9999999999994" height="20" as="geometry" />
        </mxCell>
        <mxCell id="wMrZU7lujdOBKqqqOWv5-490" value="1 day" style="strokeColor=#666666;fillColor=#f5f5f5;fontColor=#333333;" parent="1" vertex="1">
          <mxGeometry x="466.5000000000024" y="560.0000000000006" width="80.00000000000028" height="20" as="geometry" />
        </mxCell>
        <mxCell id="wMrZU7lujdOBKqqqOWv5-491" value="9" style="" parent="1" vertex="1">
          <mxGeometry x="106.50000000000037" y="580.000000000001" width="40" height="20" as="geometry" />
        </mxCell>
        <mxCell id="wMrZU7lujdOBKqqqOWv5-492" value="Create a survey for INDI customers " style="align=left;" parent="1" vertex="1">
          <mxGeometry x="146.50000000000037" y="580.000000000001" width="319.99999999999966" height="20.00000000000003" as="geometry" />
        </mxCell>
        <mxCell id="wMrZU7lujdOBKqqqOWv5-493" value="1 day" style="strokeColor=#666666;fillColor=#f5f5f5;fontColor=#333333;" parent="1" vertex="1">
          <mxGeometry x="466.5" y="580" width="80" height="20" as="geometry" />
        </mxCell>
        <mxCell id="wMrZU7lujdOBKqqqOWv5-494" value="10" style="strokeColor=#DEEDFF" parent="1" vertex="1">
          <mxGeometry x="106.50000000000028" y="600.000000000001" width="40" height="20" as="geometry" />
        </mxCell>
        <mxCell id="wMrZU7lujdOBKqqqOWv5-495" value="Understanding Customer Satisfaction: Importance for INDI" style="align=left;strokeColor=#DEEDFF" parent="1" vertex="1">
          <mxGeometry x="146.50000000000028" y="600.000000000001" width="319.9999999999997" height="20" as="geometry" />
        </mxCell>
        <mxCell id="wMrZU7lujdOBKqqqOWv5-496" value="1 day" style="strokeColor=#666666;fillColor=#f5f5f5;fontColor=#333333;" parent="1" vertex="1">
          <mxGeometry x="466.50000000000205" y="600.0000000000009" width="80.00000000000028" height="20" as="geometry" />
        </mxCell>
        <mxCell id="wMrZU7lujdOBKqqqOWv5-497" value="11" style="strokeColor=#DEEDFF" parent="1" vertex="1">
          <mxGeometry x="106.50000000000027" y="620.0000000000013" width="40" height="20" as="geometry" />
        </mxCell>
        <mxCell id="wMrZU7lujdOBKqqqOWv5-498" value="Test locally the change email task with ACC and Postman " style="align=left;strokeColor=#DEEDFF" parent="1" vertex="1">
          <mxGeometry x="146.50000000000028" y="620.0000000000013" width="319.9999999999997" height="20" as="geometry" />
        </mxCell>
        <mxCell id="wMrZU7lujdOBKqqqOWv5-499" value="2 days" style="strokeColor=#666666;fillColor=#f5f5f5;fontColor=#333333;" parent="1" vertex="1">
          <mxGeometry x="466.50000000000205" y="620.0000000000011" width="80.00000000000028" height="20" as="geometry" />
        </mxCell>
        <mxCell id="wMrZU7lujdOBKqqqOWv5-500" value="12" style="strokeColor=#DEEDFF" parent="1" vertex="1">
          <mxGeometry x="106.49999999999997" y="640.0000000000016" width="40" height="20" as="geometry" />
        </mxCell>
        <mxCell id="wMrZU7lujdOBKqqqOWv5-501" value="Check if the right emal-address is selected" style="align=left;strokeColor=#DEEDFF" parent="1" vertex="1">
          <mxGeometry x="146.49999999999997" y="640.0000000000016" width="320" height="20" as="geometry" />
        </mxCell>
        <mxCell id="wMrZU7lujdOBKqqqOWv5-502" value="1 day" style="strokeColor=#666666;fillColor=#f5f5f5;fontColor=#333333;" parent="1" vertex="1">
          <mxGeometry x="466.5000000000017" y="640.0000000000015" width="80.00000000000028" height="20" as="geometry" />
        </mxCell>
        <mxCell id="wMrZU7lujdOBKqqqOWv5-503" value="13" style="strokeColor=#DEEDFF" parent="1" vertex="1">
          <mxGeometry x="106.49999999999999" y="660.0000000000014" width="40" height="20" as="geometry" />
        </mxCell>
        <mxCell id="wMrZU7lujdOBKqqqOWv5-504" value="Test in ACC with old front-end" style="align=left;strokeColor=#DEEDFF" parent="1" vertex="1">
          <mxGeometry x="146.5" y="660.0000000000014" width="320" height="20" as="geometry" />
        </mxCell>
        <mxCell id="wMrZU7lujdOBKqqqOWv5-505" value="1 day" style="strokeColor=#666666;fillColor=#f5f5f5;fontColor=#333333;" parent="1" vertex="1">
          <mxGeometry x="466.5000000000017" y="660.0000000000014" width="80.00000000000028" height="20" as="geometry" />
        </mxCell>
        <mxCell id="wMrZU7lujdOBKqqqOWv5-506" value="14" style="strokeColor=#DEEDFF" parent="1" vertex="1">
          <mxGeometry x="106.49999999999972" y="680.0000000000018" width="40" height="20" as="geometry" />
        </mxCell>
        <mxCell id="wMrZU7lujdOBKqqqOWv5-507" value="Onderzoek; API Type and Protocol for Return Status " style="align=left;strokeColor=#DEEDFF" parent="1" vertex="1">
          <mxGeometry x="146.49999999999972" y="680.0000000000018" width="320.0000000000003" height="20" as="geometry" />
        </mxCell>
        <mxCell id="wMrZU7lujdOBKqqqOWv5-508" value="5 day" style="strokeColor=#666666;fillColor=#f5f5f5;fontColor=#333333;" parent="1" vertex="1">
          <mxGeometry x="466.5000000000014" y="680.0000000000018" width="80.00000000000028" height="20" as="geometry" />
        </mxCell>
        <mxCell id="wMrZU7lujdOBKqqqOWv5-509" value="15" style="strokeColor=#DEEDFF;fillColor=#FFFFFF" parent="1" vertex="1">
          <mxGeometry x="106.49999999999963" y="700.0000000000018" width="40" height="20" as="geometry" />
        </mxCell>
        <mxCell id="wMrZU7lujdOBKqqqOWv5-510" value="Customer Survey Distribution" style="align=left;strokeColor=#DEEDFF;fillColor=#FFFFFF" parent="1" vertex="1">
          <mxGeometry x="146.49999999999963" y="700.0000000000018" width="320.00000000000034" height="20" as="geometry" />
        </mxCell>
        <mxCell id="wMrZU7lujdOBKqqqOWv5-511" value="1 day" style="strokeColor=#666666;fillColor=#f5f5f5;fontColor=#333333;" parent="1" vertex="1">
          <mxGeometry x="466.50000000000136" y="700.0000000000018" width="80.00000000000028" height="20" as="geometry" />
        </mxCell>
        <mxCell id="wMrZU7lujdOBKqqqOWv5-512" value="16" style="" parent="1" vertex="1">
          <mxGeometry x="106.49999999999962" y="720.000000000002" width="40" height="20" as="geometry" />
        </mxCell>
        <mxCell id="wMrZU7lujdOBKqqqOWv5-513" value="Process results Customer Survey Distribution" style="align=left;" parent="1" vertex="1">
          <mxGeometry x="146.4999999999996" y="720.000000000002" width="320.0000000000004" height="20" as="geometry" />
        </mxCell>
        <mxCell id="wMrZU7lujdOBKqqqOWv5-514" value="3 day" style="strokeColor=#666666;fillColor=#f5f5f5;fontColor=#333333;" parent="1" vertex="1">
          <mxGeometry x="466.50000000000136" y="720.000000000002" width="80.00000000000028" height="20" as="geometry" />
        </mxCell>
        <mxCell id="wMrZU7lujdOBKqqqOWv5-515" value="17" style="strokeColor=#DEEDFF" parent="1" vertex="1">
          <mxGeometry x="106.500000000001" y="740.0000000000023" width="40" height="20" as="geometry" />
        </mxCell>
        <mxCell id="wMrZU7lujdOBKqqqOWv5-516" value="inquire about the missing scenario in the return diagram." style="align=left;strokeColor=#DEEDFF" parent="1" vertex="1">
          <mxGeometry x="146.500000000001" y="740.0000000000023" width="319.999999999999" height="20" as="geometry" />
        </mxCell>
        <mxCell id="wMrZU7lujdOBKqqqOWv5-517" value="1 day" style="strokeColor=#666666;fillColor=#f5f5f5;fontColor=#333333;" parent="1" vertex="1">
          <mxGeometry x="466.50000000000273" y="740.0000000000023" width="80.00000000000028" height="20" as="geometry" />
        </mxCell>
        <mxCell id="wMrZU7lujdOBKqqqOWv5-518" value="18" style="strokeColor=#DEEDFF" parent="1" vertex="1">
          <mxGeometry x="106.50000000000102" y="760.0000000000022" width="40" height="20" as="geometry" />
        </mxCell>
        <mxCell id="wMrZU7lujdOBKqqqOWv5-519" value="emailadres doorgeven aan de response" style="align=left;strokeColor=#DEEDFF" parent="1" vertex="1">
          <mxGeometry x="146.50000000000102" y="760.0000000000022" width="319.999999999999" height="20" as="geometry" />
        </mxCell>
        <mxCell id="wMrZU7lujdOBKqqqOWv5-520" value="2 day" style="strokeColor=#666666;fillColor=#f5f5f5;fontColor=#333333;" parent="1" vertex="1">
          <mxGeometry x="466.50000000000273" y="760.000000000002" width="80.00000000000028" height="20" as="geometry" />
        </mxCell>
        <mxCell id="wMrZU7lujdOBKqqqOWv5-521" value="19" style="strokeColor=#DEEDFF" parent="1" vertex="1">
          <mxGeometry x="106.50000000000074" y="780.0000000000025" width="40" height="20" as="geometry" />
        </mxCell>
        <mxCell id="wMrZU7lujdOBKqqqOWv5-522" value="emailadres opslaan in de RMA properties" style="align=left;strokeColor=#DEEDFF" parent="1" vertex="1">
          <mxGeometry x="146.50000000000074" y="780.0000000000025" width="319.99999999999926" height="20" as="geometry" />
        </mxCell>
        <mxCell id="wMrZU7lujdOBKqqqOWv5-523" value="1 day" style="strokeColor=#666666;fillColor=#f5f5f5;fontColor=#333333;" parent="1" vertex="1">
          <mxGeometry x="466.50000000000244" y="780.0000000000025" width="80.00000000000028" height="20" as="geometry" />
        </mxCell>
        <mxCell id="wMrZU7lujdOBKqqqOWv5-524" value="20" style="strokeColor=#DEEDFF" parent="1" vertex="1">
          <mxGeometry x="106.50000000000065" y="800.0000000000025" width="40" height="20" as="geometry" />
        </mxCell>
        <mxCell id="wMrZU7lujdOBKqqqOWv5-525" value="Release" style="align=left;strokeColor=#DEEDFF" parent="1" vertex="1">
          <mxGeometry x="146.50000000000065" y="800.0000000000025" width="319.9999999999993" height="20" as="geometry" />
        </mxCell>
        <mxCell id="wMrZU7lujdOBKqqqOWv5-526" value="1 day" style="strokeColor=#666666;fillColor=#f5f5f5;fontColor=#333333;" parent="1" vertex="1">
          <mxGeometry x="466.5000000000024" y="800.0000000000025" width="80.00000000000028" height="20" as="geometry" />
        </mxCell>
        <mxCell id="wMrZU7lujdOBKqqqOWv5-527" value="21" style="strokeColor=#d6b656;fillColor=#fff2cc;" parent="1" vertex="1">
          <mxGeometry x="106.50000000000065" y="820.0000000000028" width="40" height="20" as="geometry" />
        </mxCell>
        <mxCell id="wMrZU7lujdOBKqqqOWv5-528" value="Frontend:Change the email  when requesting a return$Test" style="align=left;strokeColor=#d6b656;fillColor=#fff2cc;" parent="1" vertex="1">
          <mxGeometry x="146.50000000000065" y="820.0000000000028" width="319.9999999999993" height="20" as="geometry" />
        </mxCell>
        <mxCell id="wMrZU7lujdOBKqqqOWv5-529" value="8 day" style="strokeColor=#d6b656;fillColor=#fff2cc;" parent="1" vertex="1">
          <mxGeometry x="466.5000000000024" y="820.0000000000027" width="80.00000000000028" height="20" as="geometry" />
        </mxCell>
        <mxCell id="wMrZU7lujdOBKqqqOWv5-530" value="22" style="strokeColor=#DEEDFF" parent="1" vertex="1">
          <mxGeometry x="106.50000000000136" y="840.0000000000031" width="40" height="20" as="geometry" />
        </mxCell>
        <mxCell id="wMrZU7lujdOBKqqqOWv5-531" value="Technisch ontwerp (Context, Containers, Components,code" style="align=left;strokeColor=#DEEDFF" parent="1" vertex="1">
          <mxGeometry x="146.50000000000136" y="840.0000000000031" width="319.99999999999864" height="20" as="geometry" />
        </mxCell>
        <mxCell id="wMrZU7lujdOBKqqqOWv5-532" value="4 day" style="strokeColor=#666666;fillColor=#f5f5f5;fontColor=#333333;" parent="1" vertex="1">
          <mxGeometry x="466.5000000000031" y="840.000000000003" width="80.00000000000028" height="20" as="geometry" />
        </mxCell>
        <mxCell id="wMrZU7lujdOBKqqqOWv5-533" value="23" style="strokeColor=#DEEDFF" parent="1" vertex="1">
          <mxGeometry x="106.50000000000139" y="860.000000000003" width="40" height="20" as="geometry" />
        </mxCell>
        <mxCell id="wMrZU7lujdOBKqqqOWv5-534" value="samenvatting en introductie  schrijven voor het verslag." style="align=left;strokeColor=#DEEDFF" parent="1" vertex="1">
          <mxGeometry x="146.5000000000014" y="860.000000000003" width="319.99999999999864" height="20" as="geometry" />
        </mxCell>
        <mxCell id="wMrZU7lujdOBKqqqOWv5-535" value="5 day" style="strokeColor=#666666;fillColor=#f5f5f5;fontColor=#333333;" parent="1" vertex="1">
          <mxGeometry x="466.5000000000031" y="860.000000000003" width="80.00000000000028" height="20" as="geometry" />
        </mxCell>
        <mxCell id="wMrZU7lujdOBKqqqOWv5-537" value="24" style="strokeColor=#DEEDFF" parent="1" vertex="1">
          <mxGeometry x="106.50000000000111" y="880.0000000000034" width="40" height="20" as="geometry" />
        </mxCell>
        <mxCell id="wMrZU7lujdOBKqqqOWv5-538" value="Prototype voor de front-end van de return pagina." style="align=left;strokeColor=#DEEDFF" parent="1" vertex="1">
          <mxGeometry x="146.5000000000011" y="880.0000000000034" width="319.99999999999886" height="20" as="geometry" />
        </mxCell>
        <mxCell id="wMrZU7lujdOBKqqqOWv5-539" value="2 day" style="strokeColor=#666666;fillColor=#f5f5f5;fontColor=#333333;" parent="1" vertex="1">
          <mxGeometry x="466.50000000000284" y="880.0000000000033" width="80.00000000000028" height="20" as="geometry" />
        </mxCell>
        <mxCell id="wMrZU7lujdOBKqqqOWv5-541" value="25" style="strokeColor=#DEEDFF" parent="1" vertex="1">
          <mxGeometry x="106.50000000000102" y="900.0000000000034" width="40" height="20" as="geometry" />
        </mxCell>
        <mxCell id="wMrZU7lujdOBKqqqOWv5-542" value="API specification opstellen." style="align=left;strokeColor=#DEEDFF" parent="1" vertex="1">
          <mxGeometry x="146.50000000000102" y="900.0000000000034" width="319.999999999999" height="20" as="geometry" />
        </mxCell>
        <mxCell id="wMrZU7lujdOBKqqqOWv5-543" value="1 day" style="strokeColor=#666666;fillColor=#f5f5f5;fontColor=#333333;" parent="1" vertex="1">
          <mxGeometry x="466.5000000000028" y="900.0000000000033" width="80.00000000000028" height="20" as="geometry" />
        </mxCell>
        <mxCell id="wMrZU7lujdOBKqqqOWv5-545" value="26" style="strokeColor=#DEEDFF" parent="1" vertex="1">
          <mxGeometry x="106.50000000000102" y="920.0000000000036" width="40" height="20" as="geometry" />
        </mxCell>
        <mxCell id="wMrZU7lujdOBKqqqOWv5-546" value="Presentatieadvies voor de verdere ontwikkeling van de API" style="align=left;strokeColor=#DEEDFF" parent="1" vertex="1">
          <mxGeometry x="146.500000000001" y="920.0000000000036" width="319.999999999999" height="20" as="geometry" />
        </mxCell>
        <mxCell id="wMrZU7lujdOBKqqqOWv5-547" value="1 day" style="strokeColor=#666666;fillColor=#f5f5f5;fontColor=#333333;" parent="1" vertex="1">
          <mxGeometry x="466.5000000000028" y="920.0000000000035" width="80.00000000000028" height="20" as="geometry" />
        </mxCell>
        <mxCell id="wMrZU7lujdOBKqqqOWv5-549" value="Task Name" style="fillColor=#23445D;strokeColor=#FFFFFF;strokeWidth=2;fontColor=#FFFFFF;fontStyle=1" parent="1" vertex="1">
          <mxGeometry x="146.5" y="360" width="320" height="40" as="geometry" />
        </mxCell>
        <mxCell id="wMrZU7lujdOBKqqqOWv5-550" value="" style="fillColor=#23445D;strokeColor=#FFFFFF;strokeWidth=2;fontColor=#FFFFFF;fontStyle=1" parent="1" vertex="1">
          <mxGeometry x="106.5" y="360" width="40" height="40" as="geometry" />
        </mxCell>
        <mxCell id="wMrZU7lujdOBKqqqOWv5-551" value="Duration" style="fillColor=#23445D;strokeColor=#FFFFFF;strokeWidth=2;fontColor=#FFFFFF;fontStyle=1" parent="1" vertex="1">
          <mxGeometry x="466.50000000000176" y="360.00000000000006" width="80.00000000000006" height="40.00000000000001" as="geometry" />
        </mxCell>
        <mxCell id="wMrZU7lujdOBKqqqOWv5-553" value="" style="shape=mxgraph.flowchart.process;fillColor=#AE4132;strokeColor=none;strokeWidth=2;opacity=50" parent="1" vertex="1">
          <mxGeometry x="546.5" y="420" width="43.5" height="20" as="geometry" />
        </mxCell>
        <mxCell id="wMrZU7lujdOBKqqqOWv5-554" value="12 Februari 30" style="fillColor=#23445D;strokeColor=#FFFFFF;strokeWidth=2;fontColor=#FFFFFF;fontStyle=1" parent="1" vertex="1">
          <mxGeometry x="546.5" y="360" width="253.5" height="20" as="geometry" />
        </mxCell>
        <mxCell id="wMrZU7lujdOBKqqqOWv5-555" value="12 Februari 30" style="fillColor=#23445D;strokeColor=#FFFFFF;strokeWidth=2;fontColor=#FFFFFF;fontStyle=1" parent="1" vertex="1">
          <mxGeometry x="800" y="360" width="253.5" height="20" as="geometry" />
        </mxCell>
        <mxCell id="wMrZU7lujdOBKqqqOWv5-556" value="12 Februari 30" style="fillColor=#23445D;strokeColor=#FFFFFF;strokeWidth=2;fontColor=#FFFFFF;fontStyle=1" parent="1" vertex="1">
          <mxGeometry x="1053.5" y="360" width="253.5" height="20" as="geometry" />
        </mxCell>
        <mxCell id="wMrZU7lujdOBKqqqOWv5-557" value="12 Februari 30" style="fillColor=#23445D;strokeColor=#FFFFFF;strokeWidth=2;fontColor=#FFFFFF;fontStyle=1" parent="1" vertex="1">
          <mxGeometry x="1306.5" y="360" width="253.5" height="20" as="geometry" />
        </mxCell>
        <mxCell id="wMrZU7lujdOBKqqqOWv5-558" value="12 Februari 30" style="fillColor=#23445D;strokeColor=#FFFFFF;strokeWidth=2;fontColor=#FFFFFF;fontStyle=1" parent="1" vertex="1">
          <mxGeometry x="1560" y="360" width="253.5" height="20" as="geometry" />
        </mxCell>
        <mxCell id="wMrZU7lujdOBKqqqOWv5-559" value="W1" style="fillColor=#23445D;strokeColor=#FFFFFF;strokeWidth=2;fontColor=#FFFFFF;fontStyle=1" parent="1" vertex="1">
          <mxGeometry x="546.5" y="380" width="63.5" height="20" as="geometry" />
        </mxCell>
        <mxCell id="wMrZU7lujdOBKqqqOWv5-560" value="W2" style="fillColor=#dae8fc;strokeColor=#6c8ebf;strokeWidth=2;fontStyle=1" parent="1" vertex="1">
          <mxGeometry x="610" y="380" width="63.5" height="20" as="geometry" />
        </mxCell>
        <mxCell id="wMrZU7lujdOBKqqqOWv5-561" value="W3" style="fillColor=#23445D;strokeColor=#FFFFFF;strokeWidth=2;fontColor=#FFFFFF;fontStyle=1" parent="1" vertex="1">
          <mxGeometry x="673.5" y="380" width="63.5" height="20" as="geometry" />
        </mxCell>
        <mxCell id="wMrZU7lujdOBKqqqOWv5-562" value="W4" style="fillColor=#dae8fc;strokeColor=#6c8ebf;strokeWidth=2;fontStyle=1" parent="1" vertex="1">
          <mxGeometry x="735" y="380" width="63.5" height="20" as="geometry" />
        </mxCell>
        <mxCell id="wMrZU7lujdOBKqqqOWv5-563" value="W1" style="fillColor=#23445D;strokeColor=#FFFFFF;strokeWidth=2;fontColor=#FFFFFF;fontStyle=1" parent="1" vertex="1">
          <mxGeometry x="800.75" y="380" width="63.5" height="20" as="geometry" />
        </mxCell>
        <mxCell id="wMrZU7lujdOBKqqqOWv5-564" value="W2" style="fillColor=#dae8fc;strokeColor=#6c8ebf;strokeWidth=2;fontStyle=1" parent="1" vertex="1">
          <mxGeometry x="864.25" y="380" width="63.5" height="20" as="geometry" />
        </mxCell>
        <mxCell id="wMrZU7lujdOBKqqqOWv5-565" value="W3" style="fillColor=#23445D;strokeColor=#FFFFFF;strokeWidth=2;fontColor=#FFFFFF;fontStyle=1" parent="1" vertex="1">
          <mxGeometry x="927.75" y="380" width="63.5" height="20" as="geometry" />
        </mxCell>
        <mxCell id="wMrZU7lujdOBKqqqOWv5-566" value="W4" style="fillColor=#d5e8d4;strokeColor=#82b366;strokeWidth=2;fontStyle=1" parent="1" vertex="1">
          <mxGeometry x="989.25" y="380" width="63.5" height="20" as="geometry" />
        </mxCell>
        <mxCell id="wMrZU7lujdOBKqqqOWv5-567" value="W1" style="fillColor=#23445D;strokeColor=#FFFFFF;strokeWidth=2;fontColor=#FFFFFF;fontStyle=1" parent="1" vertex="1">
          <mxGeometry x="1055" y="380" width="63.5" height="20" as="geometry" />
        </mxCell>
        <mxCell id="wMrZU7lujdOBKqqqOWv5-568" value="W2" style="fillColor=#d5e8d4;strokeColor=#82b366;strokeWidth=2;fontStyle=1" parent="1" vertex="1">
          <mxGeometry x="1118.5" y="380" width="63.5" height="20" as="geometry" />
        </mxCell>
        <mxCell id="wMrZU7lujdOBKqqqOWv5-569" value="W3" style="fillColor=#23445D;strokeColor=#FFFFFF;strokeWidth=2;fontColor=#FFFFFF;fontStyle=1" parent="1" vertex="1">
          <mxGeometry x="1182" y="380" width="63.5" height="20" as="geometry" />
        </mxCell>
        <mxCell id="wMrZU7lujdOBKqqqOWv5-570" value="W4" style="fillColor=#d5e8d4;strokeColor=#82b366;strokeWidth=2;fontStyle=1" parent="1" vertex="1">
          <mxGeometry x="1243.5" y="380" width="63.5" height="20" as="geometry" />
        </mxCell>
        <mxCell id="wMrZU7lujdOBKqqqOWv5-571" value="W1" style="fillColor=#23445D;strokeColor=#FFFFFF;strokeWidth=2;fontColor=#FFFFFF;fontStyle=1" parent="1" vertex="1">
          <mxGeometry x="1308" y="380" width="63.5" height="20" as="geometry" />
        </mxCell>
        <mxCell id="wMrZU7lujdOBKqqqOWv5-572" value="W2" style="fillColor=#d5e8d4;strokeColor=#82b366;strokeWidth=2;fontStyle=1" parent="1" vertex="1">
          <mxGeometry x="1371.5" y="380" width="63.5" height="20" as="geometry" />
        </mxCell>
        <mxCell id="wMrZU7lujdOBKqqqOWv5-573" value="W3" style="fillColor=#23445D;strokeColor=#FFFFFF;strokeWidth=2;fontColor=#FFFFFF;fontStyle=1" parent="1" vertex="1">
          <mxGeometry x="1435" y="380" width="63.5" height="20" as="geometry" />
        </mxCell>
        <mxCell id="wMrZU7lujdOBKqqqOWv5-574" value="W4" style="fillColor=#e1d5e7;strokeColor=#9673a6;strokeWidth=2;fontStyle=1" parent="1" vertex="1">
          <mxGeometry x="1496.5" y="380" width="63.5" height="20" as="geometry" />
        </mxCell>
        <mxCell id="wMrZU7lujdOBKqqqOWv5-575" value="W1" style="fillColor=#23445D;strokeColor=#FFFFFF;strokeWidth=2;fontColor=#FFFFFF;fontStyle=1" parent="1" vertex="1">
          <mxGeometry x="1561.5" y="380" width="63.5" height="20" as="geometry" />
        </mxCell>
        <mxCell id="wMrZU7lujdOBKqqqOWv5-576" value="W2" style="strokeWidth=2;fontStyle=1;fillColor=#e1d5e7;strokeColor=#9673a6;" parent="1" vertex="1">
          <mxGeometry x="1625" y="380" width="63.5" height="20" as="geometry" />
        </mxCell>
        <mxCell id="wMrZU7lujdOBKqqqOWv5-577" value="W3" style="fillColor=#23445D;strokeColor=#FFFFFF;strokeWidth=2;fontColor=#FFFFFF;fontStyle=1" parent="1" vertex="1">
          <mxGeometry x="1688.5" y="380" width="63.5" height="20" as="geometry" />
        </mxCell>
        <mxCell id="wMrZU7lujdOBKqqqOWv5-578" value="W4" style="fillColor=#e1d5e7;strokeColor=#9673a6;strokeWidth=2;fontStyle=1" parent="1" vertex="1">
          <mxGeometry x="1750" y="380" width="63.5" height="20" as="geometry" />
        </mxCell>
        <mxCell id="wMrZU7lujdOBKqqqOWv5-579" value="" style="strokeColor=#DEEDFF" parent="1" vertex="1">
          <mxGeometry x="673.5" y="400" width="63.5" height="880" as="geometry" />
        </mxCell>
        <mxCell id="wMrZU7lujdOBKqqqOWv5-582" value="" style="strokeColor=#DEEDFF;fillColor=#D4E1FF" parent="1" vertex="1">
          <mxGeometry x="737.25" y="400" width="63.5" height="881" as="geometry" />
        </mxCell>
        <mxCell id="wMrZU7lujdOBKqqqOWv5-583" value="" style="strokeColor=#DEEDFF" parent="1" vertex="1">
          <mxGeometry x="798.5" y="400" width="63.5" height="881" as="geometry" />
        </mxCell>
        <mxCell id="wMrZU7lujdOBKqqqOWv5-584" value="" style="strokeColor=#DEEDFF;fillColor=#D4E1FF" parent="1" vertex="1">
          <mxGeometry x="862" y="400" width="63.5" height="881" as="geometry" />
        </mxCell>
        <mxCell id="wMrZU7lujdOBKqqqOWv5-585" value="" style="strokeColor=#DEEDFF" parent="1" vertex="1">
          <mxGeometry x="925.5" y="400" width="63.5" height="881" as="geometry" />
        </mxCell>
        <mxCell id="wMrZU7lujdOBKqqqOWv5-586" value="" style="strokeColor=#82b366;fillColor=#d5e8d4;" parent="1" vertex="1">
          <mxGeometry x="989.25" y="400" width="63.5" height="881" as="geometry" />
        </mxCell>
        <mxCell id="wMrZU7lujdOBKqqqOWv5-587" value="" style="strokeColor=#DEEDFF" parent="1" vertex="1">
          <mxGeometry x="1053.75" y="400" width="63.5" height="881" as="geometry" />
        </mxCell>
        <mxCell id="wMrZU7lujdOBKqqqOWv5-588" value="" style="strokeColor=#82b366;fillColor=#d5e8d4;" parent="1" vertex="1">
          <mxGeometry x="1117.25" y="400" width="63.5" height="881" as="geometry" />
        </mxCell>
        <mxCell id="wMrZU7lujdOBKqqqOWv5-589" value="" style="strokeColor=#DEEDFF" parent="1" vertex="1">
          <mxGeometry x="1180.75" y="400" width="63.5" height="881" as="geometry" />
        </mxCell>
        <mxCell id="wMrZU7lujdOBKqqqOWv5-590" value="" style="strokeColor=#82b366;fillColor=#d5e8d4;" parent="1" vertex="1">
          <mxGeometry x="1244.5" y="400" width="63.5" height="881" as="geometry" />
        </mxCell>
        <mxCell id="wMrZU7lujdOBKqqqOWv5-591" value="" style="strokeColor=#DEEDFF" parent="1" vertex="1">
          <mxGeometry x="1308" y="400" width="63.5" height="881" as="geometry" />
        </mxCell>
        <mxCell id="wMrZU7lujdOBKqqqOWv5-592" value="" style="strokeColor=#82b366;fillColor=#d5e8d4;" parent="1" vertex="1">
          <mxGeometry x="1371.5" y="400" width="63.5" height="881" as="geometry" />
        </mxCell>
        <mxCell id="wMrZU7lujdOBKqqqOWv5-593" value="" style="strokeColor=#DEEDFF" parent="1" vertex="1">
          <mxGeometry x="1435" y="400" width="63.5" height="881" as="geometry" />
        </mxCell>
        <mxCell id="wMrZU7lujdOBKqqqOWv5-594" value="" style="strokeColor=#9673a6;fillColor=#e1d5e7;" parent="1" vertex="1">
          <mxGeometry x="1498.75" y="400" width="63.5" height="881" as="geometry" />
        </mxCell>
        <mxCell id="wMrZU7lujdOBKqqqOWv5-595" value="" style="strokeColor=#DEEDFF" parent="1" vertex="1">
          <mxGeometry x="1561.5" y="400" width="63.5" height="880" as="geometry" />
        </mxCell>
        <mxCell id="wMrZU7lujdOBKqqqOWv5-596" value="" style="strokeColor=#9673a6;fillColor=#e1d5e7;" parent="1" vertex="1">
          <mxGeometry x="1625" y="400" width="63.5" height="881" as="geometry" />
        </mxCell>
        <mxCell id="wMrZU7lujdOBKqqqOWv5-597" value="" style="strokeColor=#DEEDFF" parent="1" vertex="1">
          <mxGeometry x="1688.5" y="399" width="63.5" height="880" as="geometry" />
        </mxCell>
        <mxCell id="wMrZU7lujdOBKqqqOWv5-598" value="" style="strokeColor=#9673a6;fillColor=#e1d5e7;" parent="1" vertex="1">
          <mxGeometry x="1752.25" y="400" width="63.5" height="880" as="geometry" />
        </mxCell>
        <mxCell id="wMrZU7lujdOBKqqqOWv5-601" value="" style="shape=mxgraph.flowchart.process;fillColor=#AE4132;strokeColor=none;strokeWidth=2;opacity=50" parent="1" vertex="1">
          <mxGeometry x="590" y="440" width="20" height="20" as="geometry" />
        </mxCell>
        <mxCell id="wMrZU7lujdOBKqqqOWv5-614" value="" style="edgeStyle=orthogonalEdgeStyle;rounded=0;orthogonalLoop=1;jettySize=auto;html=1;" parent="1" source="wMrZU7lujdOBKqqqOWv5-602" target="wMrZU7lujdOBKqqqOWv5-613" edge="1">
          <mxGeometry relative="1" as="geometry">
            <Array as="points">
              <mxPoint x="580" y="470" />
              <mxPoint x="580" y="630" />
            </Array>
          </mxGeometry>
        </mxCell>
        <mxCell id="wMrZU7lujdOBKqqqOWv5-602" value="" style="shape=mxgraph.flowchart.process;fillColor=#AE4132;strokeColor=none;strokeWidth=2;opacity=50" parent="1" vertex="1">
          <mxGeometry x="610" y="460" width="190" height="20" as="geometry" />
        </mxCell>
        <mxCell id="wMrZU7lujdOBKqqqOWv5-604" value="" style="shape=mxgraph.flowchart.process;fillColor=#AE4132;strokeColor=none;strokeWidth=2;opacity=50" parent="1" vertex="1">
          <mxGeometry x="610" y="480" width="30" height="20" as="geometry" />
        </mxCell>
        <mxCell id="wMrZU7lujdOBKqqqOWv5-605" value="" style="shape=mxgraph.flowchart.process;fillColor=#AE4132;strokeColor=none;strokeWidth=2;opacity=50" parent="1" vertex="1">
          <mxGeometry x="640" y="500" width="20" height="20" as="geometry" />
        </mxCell>
        <mxCell id="wMrZU7lujdOBKqqqOWv5-607" value="" style="shape=mxgraph.flowchart.process;fillColor=#AE4132;strokeColor=none;strokeWidth=2;opacity=50" parent="1" vertex="1">
          <mxGeometry x="660" y="520" width="10" height="20" as="geometry" />
        </mxCell>
        <mxCell id="wMrZU7lujdOBKqqqOWv5-608" value="" style="shape=mxgraph.flowchart.process;fillColor=#AE4132;strokeColor=none;strokeWidth=2;opacity=50" parent="1" vertex="1">
          <mxGeometry x="673.5" y="540" width="40" height="20" as="geometry" />
        </mxCell>
        <mxCell id="wMrZU7lujdOBKqqqOWv5-609" value="" style="shape=mxgraph.flowchart.process;fillColor=#AE4132;strokeColor=none;strokeWidth=2;opacity=50" parent="1" vertex="1">
          <mxGeometry x="713.5" y="560" width="26.5" height="20" as="geometry" />
        </mxCell>
        <mxCell id="wMrZU7lujdOBKqqqOWv5-610" value="" style="shape=mxgraph.flowchart.process;fillColor=#AE4132;strokeColor=none;strokeWidth=2;opacity=50" parent="1" vertex="1">
          <mxGeometry x="740" y="580" width="10" height="20" as="geometry" />
        </mxCell>
        <mxCell id="wMrZU7lujdOBKqqqOWv5-611" value="" style="shape=mxgraph.flowchart.process;fillColor=#AE4132;strokeColor=none;strokeWidth=2;opacity=50" parent="1" vertex="1">
          <mxGeometry x="740" y="600" width="10" height="20" as="geometry" />
        </mxCell>
        <mxCell id="wMrZU7lujdOBKqqqOWv5-613" value="" style="shape=mxgraph.flowchart.process;fillColor=#AE4132;strokeColor=none;strokeWidth=2;opacity=50" parent="1" vertex="1">
          <mxGeometry x="750" y="620" width="20" height="20" as="geometry" />
        </mxCell>
        <mxCell id="wMrZU7lujdOBKqqqOWv5-616" value="" style="shape=mxgraph.flowchart.process;fillColor=#AE4132;strokeColor=none;strokeWidth=2;opacity=50" parent="1" vertex="1">
          <mxGeometry x="770" y="640" width="20" height="20" as="geometry" />
        </mxCell>
        <mxCell id="wMrZU7lujdOBKqqqOWv5-617" value="" style="shape=mxgraph.flowchart.process;fillColor=#AE4132;strokeColor=none;strokeWidth=2;opacity=50" parent="1" vertex="1">
          <mxGeometry x="770" y="660" width="28.5" height="20" as="geometry" />
        </mxCell>
        <mxCell id="wMrZU7lujdOBKqqqOWv5-618" value="" style="shape=mxgraph.flowchart.process;fillColor=#AE4132;strokeColor=none;strokeWidth=2;opacity=50" parent="1" vertex="1">
          <mxGeometry x="800" y="680" width="60" height="20" as="geometry" />
        </mxCell>
        <mxCell id="wMrZU7lujdOBKqqqOWv5-620" value="" style="shape=mxgraph.flowchart.process;fillColor=#AE4132;strokeColor=none;strokeWidth=2;opacity=50" parent="1" vertex="1">
          <mxGeometry x="862" y="700" width="10" height="20" as="geometry" />
        </mxCell>
        <mxCell id="wMrZU7lujdOBKqqqOWv5-621" value="" style="shape=mxgraph.flowchart.process;fillColor=#AE4132;strokeColor=none;strokeWidth=2;opacity=50" parent="1" vertex="1">
          <mxGeometry x="872" y="720" width="38" height="20" as="geometry" />
        </mxCell>
        <mxCell id="wMrZU7lujdOBKqqqOWv5-622" value="" style="shape=mxgraph.flowchart.process;fillColor=#AE4132;strokeColor=none;strokeWidth=2;opacity=50" parent="1" vertex="1">
          <mxGeometry x="910" y="740" width="11.25" height="20" as="geometry" />
        </mxCell>
        <mxCell id="wMrZU7lujdOBKqqqOWv5-623" value="" style="shape=mxgraph.flowchart.process;fillColor=#AE4132;strokeColor=none;strokeWidth=2;opacity=50" parent="1" vertex="1">
          <mxGeometry x="911.5" y="760" width="28.5" height="20" as="geometry" />
        </mxCell>
        <mxCell id="wMrZU7lujdOBKqqqOWv5-624" value="" style="shape=mxgraph.flowchart.process;fillColor=#AE4132;strokeColor=none;strokeWidth=2;opacity=50" parent="1" vertex="1">
          <mxGeometry x="940" y="780" width="10" height="20" as="geometry" />
        </mxCell>
        <mxCell id="wMrZU7lujdOBKqqqOWv5-625" value="" style="shape=mxgraph.flowchart.process;fillColor=#AE4132;strokeColor=none;strokeWidth=2;opacity=50" parent="1" vertex="1">
          <mxGeometry x="940" y="800" width="10" height="20" as="geometry" />
        </mxCell>
        <mxCell id="wMrZU7lujdOBKqqqOWv5-626" value="27" style="strokeColor=#DEEDFF" parent="1" vertex="1">
          <mxGeometry x="106.50000000000102" y="940.0000000000036" width="40" height="20" as="geometry" />
        </mxCell>
        <mxCell id="wMrZU7lujdOBKqqqOWv5-627" value="Projectaanpak en risico&#39;s schrijven" style="align=left;strokeColor=#DEEDFF" parent="1" vertex="1">
          <mxGeometry x="146.500000000001" y="940.0000000000036" width="319.999999999999" height="20" as="geometry" />
        </mxCell>
        <mxCell id="wMrZU7lujdOBKqqqOWv5-628" value="4 day" style="strokeColor=#666666;fillColor=#f5f5f5;fontColor=#333333;" parent="1" vertex="1">
          <mxGeometry x="466.5000000000028" y="940.0000000000035" width="80.00000000000028" height="20" as="geometry" />
        </mxCell>
        <mxCell id="wMrZU7lujdOBKqqqOWv5-629" value="28" style="strokeColor=#DEEDFF" parent="1" vertex="1">
          <mxGeometry x="106.50000000000102" y="960.0000000000036" width="40" height="20" as="geometry" />
        </mxCell>
        <mxCell id="wMrZU7lujdOBKqqqOWv5-630" value="HBO-I competenties hoofdstuk " style="align=left;strokeColor=#DEEDFF" parent="1" vertex="1">
          <mxGeometry x="146.500000000001" y="960.0000000000036" width="319.999999999999" height="20" as="geometry" />
        </mxCell>
        <mxCell id="wMrZU7lujdOBKqqqOWv5-631" value="8 day" style="strokeColor=#666666;fillColor=#f5f5f5;fontColor=#333333;" parent="1" vertex="1">
          <mxGeometry x="466.5000000000028" y="960.0000000000035" width="80.00000000000028" height="20" as="geometry" />
        </mxCell>
        <mxCell id="wMrZU7lujdOBKqqqOWv5-632" value="30" style="strokeColor=#DEEDFF" parent="1" vertex="1">
          <mxGeometry x="106.50000000000102" y="1000.0000000000036" width="40" height="20" as="geometry" />
        </mxCell>
        <mxCell id="wMrZU7lujdOBKqqqOWv5-633" value="create APIReturnRequest object" style="align=left;strokeColor=#DEEDFF" parent="1" vertex="1">
          <mxGeometry x="146.500000000001" y="1000.0000000000036" width="319.999999999999" height="20" as="geometry" />
        </mxCell>
        <mxCell id="wMrZU7lujdOBKqqqOWv5-634" value="1 day" style="strokeColor=#666666;fillColor=#f5f5f5;fontColor=#333333;" parent="1" vertex="1">
          <mxGeometry x="466.5000000000028" y="1000.0000000000035" width="80.00000000000028" height="20" as="geometry" />
        </mxCell>
        <mxCell id="wMrZU7lujdOBKqqqOWv5-635" value="31" style="strokeColor=#DEEDFF" parent="1" vertex="1">
          <mxGeometry x="106.50000000000102" y="1020.0000000000036" width="40" height="20" as="geometry" />
        </mxCell>
        <mxCell id="wMrZU7lujdOBKqqqOWv5-636" value="create method in oms.dao to retrieve data for return request." style="align=left;strokeColor=#DEEDFF" parent="1" vertex="1">
          <mxGeometry x="146.500000000001" y="1020.0000000000036" width="319.999999999999" height="20" as="geometry" />
        </mxCell>
        <mxCell id="wMrZU7lujdOBKqqqOWv5-637" value="8 day" style="strokeColor=#666666;fillColor=#f5f5f5;fontColor=#333333;" parent="1" vertex="1">
          <mxGeometry x="466.5000000000028" y="1020.0000000000035" width="80.00000000000028" height="20" as="geometry" />
        </mxCell>
        <mxCell id="wMrZU7lujdOBKqqqOWv5-638" value="32" style="strokeColor=#DEEDFF" parent="1" vertex="1">
          <mxGeometry x="106.50000000000102" y="1040.0000000000036" width="40" height="20" as="geometry" />
        </mxCell>
        <mxCell id="wMrZU7lujdOBKqqqOWv5-639" value="test case for&#39;testGetAllReturnRequestsByCustomerNumber&#39; " style="align=left;strokeColor=#DEEDFF" parent="1" vertex="1">
          <mxGeometry x="146.500000000001" y="1040.0000000000036" width="319.999999999999" height="20" as="geometry" />
        </mxCell>
        <mxCell id="wMrZU7lujdOBKqqqOWv5-640" value="4 day" style="strokeColor=#666666;fillColor=#f5f5f5;fontColor=#333333;" parent="1" vertex="1">
          <mxGeometry x="466.50000000000273" y="1040.0000000000036" width="80.00000000000028" height="20" as="geometry" />
        </mxCell>
        <mxCell id="wMrZU7lujdOBKqqqOWv5-644" value="33" style="strokeColor=#DEEDFF" parent="1" vertex="1">
          <mxGeometry x="106.50000000000102" y="1060.0000000000036" width="40" height="20" as="geometry" />
        </mxCell>
        <mxCell id="wMrZU7lujdOBKqqqOWv5-645" value="Create INDIReturnOverview controller access the database" style="align=left;strokeColor=#DEEDFF" parent="1" vertex="1">
          <mxGeometry x="146.5" y="1060" width="320" height="20" as="geometry" />
        </mxCell>
        <mxCell id="wMrZU7lujdOBKqqqOWv5-646" value="3 day" style="strokeColor=#666666;fillColor=#f5f5f5;fontColor=#333333;" parent="1" vertex="1">
          <mxGeometry x="466.50000000000273" y="1060.0000000000036" width="80.00000000000028" height="20" as="geometry" />
        </mxCell>
        <mxCell id="wMrZU7lujdOBKqqqOWv5-647" value="34" style="strokeColor=#DEEDFF" parent="1" vertex="1">
          <mxGeometry x="106.50000000000102" y="1080.0000000000036" width="40" height="20" as="geometry" />
        </mxCell>
        <mxCell id="wMrZU7lujdOBKqqqOWv5-648" value="Build an adapter using MapStruct (RMAs to apiRMA types)" style="align=left;strokeColor=#DEEDFF" parent="1" vertex="1">
          <mxGeometry x="146.500000000001" y="1080.0000000000036" width="319.999999999999" height="20" as="geometry" />
        </mxCell>
        <mxCell id="wMrZU7lujdOBKqqqOWv5-649" value="5 day" style="strokeColor=#666666;fillColor=#f5f5f5;fontColor=#333333;" parent="1" vertex="1">
          <mxGeometry x="466.50000000000273" y="1080.0000000000036" width="80.00000000000028" height="20" as="geometry" />
        </mxCell>
        <mxCell id="wMrZU7lujdOBKqqqOWv5-650" value="35" style="strokeColor=#DEEDFF" parent="1" vertex="1">
          <mxGeometry x="106.50000000000102" y="1100.0000000000036" width="40" height="20" as="geometry" />
        </mxCell>
        <mxCell id="wMrZU7lujdOBKqqqOWv5-651" value="test case for the adapter and INDIReturnOverview controller." style="align=left;strokeColor=#DEEDFF" parent="1" vertex="1">
          <mxGeometry x="146.500000000001" y="1100.0000000000036" width="319.999999999999" height="20" as="geometry" />
        </mxCell>
        <mxCell id="wMrZU7lujdOBKqqqOWv5-652" value="3 day" style="strokeColor=#666666;fillColor=#f5f5f5;fontColor=#333333;" parent="1" vertex="1">
          <mxGeometry x="466.50000000000273" y="1100.0000000000036" width="80.00000000000028" height="20" as="geometry" />
        </mxCell>
        <mxCell id="wMrZU7lujdOBKqqqOWv5-653" value="36" style="strokeColor=#DEEDFF" parent="1" vertex="1">
          <mxGeometry x="106.50000000000102" y="1120.0000000000036" width="40" height="20" as="geometry" />
        </mxCell>
        <mxCell id="wMrZU7lujdOBKqqqOWv5-654" value="ReturnOverviewService and construct the HTTP response" style="align=left;strokeColor=#DEEDFF" parent="1" vertex="1">
          <mxGeometry x="146.500000000001" y="1120.0000000000036" width="319.999999999999" height="20" as="geometry" />
        </mxCell>
        <mxCell id="wMrZU7lujdOBKqqqOWv5-655" value="3 day" style="strokeColor=#666666;fillColor=#f5f5f5;fontColor=#333333;" parent="1" vertex="1">
          <mxGeometry x="466.50000000000273" y="1120.0000000000036" width="80.00000000000028" height="20" as="geometry" />
        </mxCell>
        <mxCell id="wMrZU7lujdOBKqqqOWv5-656" value="37" style="strokeColor=#DEEDFF" parent="1" vertex="1">
          <mxGeometry x="106.50000000000102" y="1140.0000000000036" width="40" height="20" as="geometry" />
        </mxCell>
        <mxCell id="wMrZU7lujdOBKqqqOWv5-657" value="Documentatie schrijven for the Backend " style="align=left;strokeColor=#DEEDFF" parent="1" vertex="1">
          <mxGeometry x="146.500000000001" y="1140.0000000000036" width="319.999999999999" height="20" as="geometry" />
        </mxCell>
        <mxCell id="wMrZU7lujdOBKqqqOWv5-658" value="2 day" style="strokeColor=#666666;fillColor=#f5f5f5;fontColor=#333333;" parent="1" vertex="1">
          <mxGeometry x="466.50000000000273" y="1140.0000000000036" width="80.00000000000028" height="20" as="geometry" />
        </mxCell>
        <mxCell id="wMrZU7lujdOBKqqqOWv5-659" value="" style="shape=mxgraph.flowchart.process;fillColor=#AE4132;strokeColor=none;strokeWidth=2;opacity=50" parent="1" vertex="1">
          <mxGeometry x="950" y="820" width="120" height="20" as="geometry" />
        </mxCell>
        <mxCell id="wMrZU7lujdOBKqqqOWv5-660" value="" style="shape=mxgraph.flowchart.process;fillColor=#AE4132;strokeColor=none;strokeWidth=2;opacity=50" parent="1" vertex="1">
          <mxGeometry x="1070" y="840" width="50" height="20" as="geometry" />
        </mxCell>
        <mxCell id="wMrZU7lujdOBKqqqOWv5-661" value="" style="shape=mxgraph.flowchart.process;fillColor=#AE4132;strokeColor=none;strokeWidth=2;opacity=50" parent="1" vertex="1">
          <mxGeometry x="1120" y="860" width="60" height="20" as="geometry" />
        </mxCell>
        <mxCell id="wMrZU7lujdOBKqqqOWv5-662" value="" style="shape=mxgraph.flowchart.process;fillColor=#AE4132;strokeColor=none;strokeWidth=2;opacity=50" parent="1" vertex="1">
          <mxGeometry x="1180" y="880" width="20" height="20" as="geometry" />
        </mxCell>
        <mxCell id="wMrZU7lujdOBKqqqOWv5-663" value="" style="shape=mxgraph.flowchart.process;fillColor=#AE4132;strokeColor=none;strokeWidth=2;opacity=50" parent="1" vertex="1">
          <mxGeometry x="1200" y="900" width="10" height="20" as="geometry" />
        </mxCell>
        <mxCell id="wMrZU7lujdOBKqqqOWv5-664" value="38" style="strokeColor=#d6b656;fillColor=#fff2cc;" parent="1" vertex="1">
          <mxGeometry x="106.50000000000102" y="1160.0000000000036" width="40" height="20" as="geometry" />
        </mxCell>
        <mxCell id="wMrZU7lujdOBKqqqOWv5-665" value="Return overview frontend " style="align=left;strokeColor=#d6b656;fillColor=#fff2cc;" parent="1" vertex="1">
          <mxGeometry x="146.500000000001" y="1160.0000000000036" width="319.999999999999" height="20" as="geometry" />
        </mxCell>
        <mxCell id="wMrZU7lujdOBKqqqOWv5-666" value="15 day" style="strokeColor=#d6b656;fillColor=#fff2cc;" parent="1" vertex="1">
          <mxGeometry x="466.50000000000273" y="1160.0000000000036" width="80.00000000000028" height="20" as="geometry" />
        </mxCell>
        <mxCell id="wMrZU7lujdOBKqqqOWv5-667" value="39" style="strokeColor=#DEEDFF" parent="1" vertex="1">
          <mxGeometry x="106.50000000000102" y="1180.0000000000036" width="40" height="20" as="geometry" />
        </mxCell>
        <mxCell id="wMrZU7lujdOBKqqqOWv5-668" value="create return-request.service" style="align=left;strokeColor=#DEEDFF" parent="1" vertex="1">
          <mxGeometry x="146.500000000001" y="1180.0000000000036" width="319.999999999999" height="20" as="geometry" />
        </mxCell>
        <mxCell id="wMrZU7lujdOBKqqqOWv5-669" value="2 day" style="strokeColor=#666666;fillColor=#f5f5f5;fontColor=#333333;" parent="1" vertex="1">
          <mxGeometry x="466.50000000000273" y="1180.0000000000036" width="80.00000000000028" height="20" as="geometry" />
        </mxCell>
        <mxCell id="wMrZU7lujdOBKqqqOWv5-670" value="40" style="strokeColor=#DEEDFF" parent="1" vertex="1">
          <mxGeometry x="106.50000000000102" y="1200.0000000000036" width="40" height="20" as="geometry" />
        </mxCell>
        <mxCell id="wMrZU7lujdOBKqqqOWv5-671" value="create return-request-component" style="align=left;strokeColor=#DEEDFF" parent="1" vertex="1">
          <mxGeometry x="146.500000000001" y="1200.0000000000036" width="319.999999999999" height="20" as="geometry" />
        </mxCell>
        <mxCell id="wMrZU7lujdOBKqqqOWv5-672" value="3 day" style="strokeColor=#666666;fillColor=#f5f5f5;fontColor=#333333;" parent="1" vertex="1">
          <mxGeometry x="466.50000000000273" y="1200.0000000000036" width="80.00000000000028" height="20" as="geometry" />
        </mxCell>
        <mxCell id="wMrZU7lujdOBKqqqOWv5-673" value="41" style="strokeColor=#DEEDFF" parent="1" vertex="1">
          <mxGeometry x="106.50000000000102" y="1220.0000000000036" width="40" height="20" as="geometry" />
        </mxCell>
        <mxCell id="wMrZU7lujdOBKqqqOWv5-674" value="create template and fetch data" style="align=left;strokeColor=#DEEDFF" parent="1" vertex="1">
          <mxGeometry x="146.500000000001" y="1220.0000000000036" width="319.999999999999" height="20" as="geometry" />
        </mxCell>
        <mxCell id="wMrZU7lujdOBKqqqOWv5-675" value="4 day" style="strokeColor=#666666;fillColor=#f5f5f5;fontColor=#333333;" parent="1" vertex="1">
          <mxGeometry x="466.50000000000273" y="1220.0000000000036" width="80.00000000000028" height="20" as="geometry" />
        </mxCell>
        <mxCell id="wMrZU7lujdOBKqqqOWv5-676" value="42" style="strokeColor=#DEEDFF" parent="1" vertex="1">
          <mxGeometry x="106.50000000000102" y="1240.0000000000036" width="40" height="20" as="geometry" />
        </mxCell>
        <mxCell id="wMrZU7lujdOBKqqqOWv5-677" value="Front end test cases " style="align=left;strokeColor=#DEEDFF" parent="1" vertex="1">
          <mxGeometry x="146.500000000001" y="1240.0000000000036" width="319.999999999999" height="20" as="geometry" />
        </mxCell>
        <mxCell id="wMrZU7lujdOBKqqqOWv5-678" value="4 day" style="strokeColor=#666666;fillColor=#f5f5f5;fontColor=#333333;" parent="1" vertex="1">
          <mxGeometry x="466.50000000000273" y="1240.0000000000036" width="80.00000000000028" height="20" as="geometry" />
        </mxCell>
        <mxCell id="wMrZU7lujdOBKqqqOWv5-679" value="" style="shape=mxgraph.flowchart.process;fillColor=#AE4132;strokeColor=none;strokeWidth=2;opacity=50" parent="1" vertex="1">
          <mxGeometry x="1207.5" y="920" width="10" height="20" as="geometry" />
        </mxCell>
        <mxCell id="wMrZU7lujdOBKqqqOWv5-680" value="" style="shape=mxgraph.flowchart.process;fillColor=#AE4132;strokeColor=none;strokeWidth=2;opacity=50" parent="1" vertex="1">
          <mxGeometry x="1207.5" y="940" width="62.5" height="20" as="geometry" />
        </mxCell>
        <mxCell id="wMrZU7lujdOBKqqqOWv5-681" value="" style="shape=mxgraph.flowchart.process;fillColor=#AE4132;strokeColor=none;strokeWidth=2;opacity=50" parent="1" vertex="1">
          <mxGeometry x="1243.5" y="960" width="106.5" height="20" as="geometry" />
        </mxCell>
        <mxCell id="wMrZU7lujdOBKqqqOWv5-682" value="" style="shape=mxgraph.flowchart.process;fillColor=#AE4132;strokeColor=none;strokeWidth=2;opacity=50" parent="1" vertex="1">
          <mxGeometry x="1348.25" y="1000" width="11.75" height="20" as="geometry" />
        </mxCell>
        <mxCell id="wMrZU7lujdOBKqqqOWv5-683" value="" style="shape=mxgraph.flowchart.process;fillColor=#AE4132;strokeColor=none;strokeWidth=2;opacity=50" parent="1" vertex="1">
          <mxGeometry x="1350" y="1020" width="80" height="20" as="geometry" />
        </mxCell>
        <mxCell id="wMrZU7lujdOBKqqqOWv5-684" value="" style="shape=mxgraph.flowchart.process;fillColor=#AE4132;strokeColor=none;strokeWidth=2;opacity=50" parent="1" vertex="1">
          <mxGeometry x="1440" y="1040" width="50" height="20" as="geometry" />
        </mxCell>
        <mxCell id="wMrZU7lujdOBKqqqOWv5-685" value="" style="shape=mxgraph.flowchart.process;fillColor=#AE4132;strokeColor=none;strokeWidth=2;opacity=50" parent="1" vertex="1">
          <mxGeometry x="1490" y="1060" width="40" height="20" as="geometry" />
        </mxCell>
        <mxCell id="wMrZU7lujdOBKqqqOWv5-686" value="" style="shape=mxgraph.flowchart.process;fillColor=#AE4132;strokeColor=none;strokeWidth=2;opacity=50" parent="1" vertex="1">
          <mxGeometry x="1530" y="1080" width="50" height="20" as="geometry" />
        </mxCell>
        <mxCell id="wMrZU7lujdOBKqqqOWv5-687" value="" style="shape=mxgraph.flowchart.process;fillColor=#AE4132;strokeColor=none;strokeWidth=2;opacity=50" parent="1" vertex="1">
          <mxGeometry x="1580" y="1100" width="40" height="20" as="geometry" />
        </mxCell>
        <mxCell id="wMrZU7lujdOBKqqqOWv5-689" value="" style="shape=mxgraph.flowchart.process;fillColor=#AE4132;strokeColor=none;strokeWidth=2;opacity=50" parent="1" vertex="1">
          <mxGeometry x="1620" y="1120" width="40" height="20" as="geometry" />
        </mxCell>
        <mxCell id="wMrZU7lujdOBKqqqOWv5-690" value="" style="shape=mxgraph.flowchart.process;fillColor=#AE4132;strokeColor=none;strokeWidth=2;opacity=50" parent="1" vertex="1">
          <mxGeometry x="1660" y="1140" width="30" height="20" as="geometry" />
        </mxCell>
        <mxCell id="wMrZU7lujdOBKqqqOWv5-692" value="" style="shape=mxgraph.flowchart.process;fillColor=#AE4132;strokeColor=none;strokeWidth=2;opacity=50" parent="1" vertex="1">
          <mxGeometry x="1690" y="1160" width="120" height="20" as="geometry" />
        </mxCell>
        <mxCell id="wMrZU7lujdOBKqqqOWv5-693" value="43" style="strokeColor=#DEEDFF" parent="1" vertex="1">
          <mxGeometry x="106.50000000000102" y="1261.0000000000036" width="40" height="20" as="geometry" />
        </mxCell>
        <mxCell id="wMrZU7lujdOBKqqqOWv5-694" value="Documentatie schrijven for the Frontend" style="align=left;strokeColor=#DEEDFF" parent="1" vertex="1">
          <mxGeometry x="146.500000000001" y="1261.0000000000036" width="319.999999999999" height="20" as="geometry" />
        </mxCell>
        <mxCell id="wMrZU7lujdOBKqqqOWv5-695" value="1 day" style="strokeColor=#666666;fillColor=#f5f5f5;fontColor=#333333;" parent="1" vertex="1">
          <mxGeometry x="466.50000000000273" y="1261.0000000000036" width="80.00000000000028" height="20" as="geometry" />
        </mxCell>
        <mxCell id="wMrZU7lujdOBKqqqOWv5-696" value="" style="shape=mxgraph.flowchart.process;fillColor=#AE4132;strokeColor=none;strokeWidth=2;opacity=50" parent="1" vertex="1">
          <mxGeometry x="1690" y="1180" width="30" height="20" as="geometry" />
        </mxCell>
        <mxCell id="wMrZU7lujdOBKqqqOWv5-697" value="" style="shape=mxgraph.flowchart.process;fillColor=#AE4132;strokeColor=none;strokeWidth=2;opacity=50" parent="1" vertex="1">
          <mxGeometry x="1800" y="1260" width="13.5" height="20" as="geometry" />
        </mxCell>
        <mxCell id="wMrZU7lujdOBKqqqOWv5-698" value="" style="shape=mxgraph.flowchart.process;fillColor=#AE4132;strokeColor=none;strokeWidth=2;opacity=50" parent="1" vertex="1">
          <mxGeometry x="1720" y="1200" width="30" height="20" as="geometry" />
        </mxCell>
        <mxCell id="wMrZU7lujdOBKqqqOWv5-699" value="" style="shape=mxgraph.flowchart.process;fillColor=#AE4132;strokeColor=none;strokeWidth=2;opacity=50" parent="1" vertex="1">
          <mxGeometry x="1740" y="1220" width="30" height="20" as="geometry" />
        </mxCell>
        <mxCell id="wMrZU7lujdOBKqqqOWv5-700" value="" style="shape=mxgraph.flowchart.process;fillColor=#AE4132;strokeColor=none;strokeWidth=2;opacity=50" parent="1" vertex="1">
          <mxGeometry x="1769" y="1240" width="30" height="20" as="geometry" />
        </mxCell>
        <mxCell id="wMrZU7lujdOBKqqqOWv5-709" value="29" style="strokeColor=#d6b656;fillColor=#fff2cc;" parent="1" vertex="1">
          <mxGeometry x="106.49999999999962" y="980.000000000002" width="40" height="20" as="geometry" />
        </mxCell>
        <mxCell id="wMrZU7lujdOBKqqqOWv5-710" value="Return overview: Back-end" style="align=left;strokeColor=#d6b656;fillColor=#fff2cc;" parent="1" vertex="1">
          <mxGeometry x="146.4999999999996" y="980.000000000002" width="320.0000000000004" height="20" as="geometry" />
        </mxCell>
        <mxCell id="wMrZU7lujdOBKqqqOWv5-711" value="20 day" style="strokeColor=#d6b656;fillColor=#fff2cc;" parent="1" vertex="1">
          <mxGeometry x="466.50000000000136" y="980.000000000002" width="80.00000000000028" height="20" as="geometry" />
        </mxCell>
        <mxCell id="wMrZU7lujdOBKqqqOWv5-712" value="" style="shape=mxgraph.flowchart.process;fillColor=#AE4132;strokeColor=none;strokeWidth=2;opacity=50" parent="1" vertex="1">
          <mxGeometry x="1348.25" y="980" width="341.75" height="20" as="geometry" />
        </mxCell>
        <mxCell id="pzt4W12OT5dkYtzaSRnR-265" value="" style="shape=mxgraph.flowchart.process;fillColor=#AE4132;strokeColor=none;strokeWidth=2;opacity=50" vertex="1" parent="1">
          <mxGeometry x="545" y="400" width="1265" height="20" as="geometry" />
        </mxCell>
        <mxCell id="pzt4W12OT5dkYtzaSRnR-266" value="-" style="strokeColor=#DEEDFF;fillColor=#ADC3D9" vertex="1" parent="1">
          <mxGeometry x="106.5" y="399" width="40" height="20" as="geometry" />
        </mxCell>
        <mxCell id="pzt4W12OT5dkYtzaSRnR-267" value="Stage Opdracht" style="align=left;strokeColor=#DEEDFF;fillColor=#ADC3D9" vertex="1" parent="1">
          <mxGeometry x="146.5" y="399" width="320" height="20" as="geometry" />
        </mxCell>
        <mxCell id="pzt4W12OT5dkYtzaSRnR-270" value="" style="shape=mxgraph.flowchart.process;fillColor=#AE4132;strokeColor=none;strokeWidth=2;opacity=50" vertex="1" parent="1">
          <mxGeometry x="545" y="400" width="1270" height="20" as="geometry" />
        </mxCell>
        <mxCell id="pzt4W12OT5dkYtzaSRnR-273" value="160 day" style="align=center;strokeColor=#DEEDFF;fillColor=#ADC3D9" vertex="1" parent="1">
          <mxGeometry x="466.5" y="399" width="77.5" height="20" as="geometry" />
        </mxCell>
      </root>
    </mxGraphModel>
  </diagram>
</mxfile>
